<?xml version="1.0" encoding="utf-8"?>
<!-- Generator: Adobe Illustrator 24.1.0, SVG Export Plug-In . SVG Version: 6.00 Build 0)  -->
<svg version="1.1" id="Calque_1" xmlns="http://www.w3.org/2000/svg" xmlns:xlink="http://www.w3.org/1999/xlink" x="0px" y="0px"
	 viewBox="0 0 512 512" style="enable-background:new 0 0 512 512;" xml:space="preserve">
<style type="text/css">
	.st0{fill:#FFFFFF;}
	.st1{fill:url(#SVGID_1_);}
	.st2{fill:url(#SVGID_2_);}
	.st3{fill:url(#SVGID_3_);}
	.st4{fill:url(#SVGID_4_);}
	.st5{fill:url(#SVGID_5_);}
	.st6{fill:url(#SVGID_6_);}
	.st7{fill:url(#SVGID_7_);}
</style>
<path class="st0" d="M251.6,217.1L190,323.3h118.9L251.6,217.1z"/>
<linearGradient id="SVGID_1_" gradientUnits="userSpaceOnUse" x1="86.33" y1="344.38" x2="86.33" y2="344.38" gradientTransform="matrix(1 0 0 -1 0 512)">
	<stop  offset="0" style="stop-color:#879EFE"/>
	<stop  offset="0.364" style="stop-color:#879EFE"/>
	<stop  offset="0.866" style="stop-color:#ADCFFF"/>
	<stop  offset="1" style="stop-color:#ADCFFF"/>
</linearGradient>
<path class="st1" d="M86.3,167.6"/>
<linearGradient id="SVGID_2_" gradientUnits="userSpaceOnUse" x1="337.7714" y1="288.9706" x2="248.7414" y2="518.2256" gradientTransform="matrix(1 0 0 -1 0 512)">
	<stop  offset="0" style="stop-color:#605EFF"/>
	<stop  offset="0.581" style="stop-color:#7E9EFF"/>
</linearGradient>
<path class="st2" d="M250.3,30.6l-1.8,51.8c0,0,10.9,89.9,56.4,116.9l54,31.9C362.1,58.6,250.3,30.6,250.3,30.6z"/>
<linearGradient id="SVGID_3_" gradientUnits="userSpaceOnUse" x1="133.1194" y1="279.1103" x2="37.2134" y2="80.6003" gradientTransform="matrix(1 0 0 -1 0 512)">
	<stop  offset="1.700000e-02" style="stop-color:#5E89FF"/>
	<stop  offset="0.682" style="stop-color:#70B6E4"/>
</linearGradient>
<path class="st3" d="M28.2,417.6l45.7-24.3c7.2-3.1,76.7-66.2,73.1-107.3l0.7-62.7C-3.5,306.8,28.2,417.6,28.2,417.6z"/>
<linearGradient id="SVGID_4_" gradientUnits="userSpaceOnUse" x1="245.21" y1="105.8993" x2="452.07" y2="95.2193" gradientTransform="matrix(1 0 0 -1 0 512)">
	<stop  offset="0" style="stop-color:#338ED0"/>
	<stop  offset="1" style="stop-color:#51AAB0"/>
</linearGradient>
<path class="st4" d="M474.6,417.8l-44-27.4c0,0-83.3-35.5-129.5-9.6l-54.6,30.8C394.5,500.6,474.6,417.8,474.6,417.8L474.6,417.8z"
	/>
<linearGradient id="SVGID_5_" gradientUnits="userSpaceOnUse" x1="144.3808" y1="-21.2545" x2="270.9208" y2="190.4655" gradientTransform="matrix(1 0 0 -1 0 512)">
	<stop  offset="0" style="stop-color:#71CCE3"/>
	<stop  offset="0.951" style="stop-color:#ADCFFF"/>
</linearGradient>
<path class="st5" d="M330.7,335.1c-44-30.9-84.5-31.5-132.4-16.4L27.6,415.5c-1.6,2.9,4.5,8.5,4.9,8.8l0.5,0.3l103.6,56
	c6.9,2,19.9-6.6,19.9-6.6c109.6-57.8,172.3-128.3,262.2-86.9L330.7,335.1L330.7,335.1z"/>
<linearGradient id="SVGID_6_" gradientUnits="userSpaceOnUse" x1="501.2419" y1="216.5069" x2="261.0619" y2="283.4669" gradientTransform="matrix(1 0 0 -1 0 512)">
	<stop  offset="0" style="stop-color:#52ABAF"/>
	<stop  offset="0.766" style="stop-color:#ADCFFF"/>
</linearGradient>
<path class="st6" d="M302.7,319.5l169.4,99.6c3.1,0.4,5.3-8.4,5.3-8.7L474.1,292c-1.7-7-15.7-14-15.7-14
	c-105-66.1-197.5-85.1-206.6-183.8C255.2,180.5,227.7,257.3,302.7,319.5z"/>
<linearGradient id="SVGID_7_" gradientUnits="userSpaceOnUse" x1="100.6327" y1="380.2786" x2="240.0843" y2="214.0179" gradientTransform="matrix(1 0 0 -1 0 512)">
	<stop  offset="3.400000e-02" style="stop-color:#879EFE"/>
	<stop  offset="1" style="stop-color:#ADCFFF"/>
</linearGradient>
<path class="st7" d="M197.3,320.8l0.2,0c31.3-23,45.4-53.3,53.9-91.1l1.5-198c-1.8-3.1-10.3-0.2-10.3-0.2L140,94.1
	c-5.3,5-4.3,20.7-4.3,20.7l0,91.5c3.7,87.3-2.6,101-2.6,101c-10.6,41.3-31,64.3-54.7,79.4C78.8,386.6,196.8,321,197.3,320.8
	L197.3,320.8z"/>
</svg>
