<svg xmlns="http://www.w3.org/2000/svg" viewBox="0 0 512 512"><path fill="#fff" d="M251.58 217.06l-61.55 106.22h118.9z"/><linearGradient id="A" x1="86.323" x2="86.323" y1="167.623" y2="167.623" gradientUnits="userSpaceOnUse"><stop stop-color="#879efe" offset="0"/><stop stop-color="#879efe" offset=".364"/><stop stop-color="#adcfff" offset=".866"/><stop stop-color="#adcfff" offset="1"/></linearGradient><path d="m86.33 167.62z" fill="url(#A)"/><linearGradient id="B" x1="337.77" x2="248.74" y1="223.03" y2="-6.225" gradientUnits="userSpaceOnUse"><stop stop-color="#605eff" offset="0"/><stop stop-color="#7e9eff" offset=".581"/></linearGradient><path d="M250.25 30.6l-1.78 51.77s10.87 89.93 56.37 116.94l53.95 31.9C362.06 58.6 250.25 30.6 250.25 30.6z" fill="url(#B)"/><linearGradient id="C" x1="133.12" x2="37.214" y1="232.89" y2="431.4" gradientUnits="userSpaceOnUse"><stop stop-color="#5e89ff" offset=".017"/><stop stop-color="#70b6e4" offset=".682"/></linearGradient><path d="M28.18 417.64L73.9 393.3c7.22-3.15 76.7-66.18 73.1-107.3l.66-62.68C-3.5 306.8 28.18 417.64 28.18 417.64z" fill="url(#C)"/><linearGradient id="D" x1="245.21" x2="452.07" y1="406.1" y2="416.78" gradientUnits="userSpaceOnUse"><stop stop-color="#338ed0" offset="0"/><stop stop-color="#51aab0" offset="1"/></linearGradient><path d="m474.65 417.77-43.95-27.43s-83.32-35.55-129.46-9.65l-54.61 30.76c147.88 89.16 228.02 6.32 228.02 6.32z" fill="url(#D)"/><linearGradient id="E" x1="144.39" x2="270.93" y1="533.26" y2="321.54" gradientUnits="userSpaceOnUse"><stop stop-color="#71cce3" offset="0"/><stop stop-color="#adcfff" offset=".951"/></linearGradient><path d="M330.74 335.12c-44.05-30.94-84.47-31.5-132.36-16.43L27.6 415.5c-1.64 2.94 4.53 8.53 4.88 8.84l.54.3 103.62 56.05c6.9 1.98 19.93-6.6 19.93-6.6 109.57-57.78 172.25-128.3 262.24-86.85l-88.08-52.12z" fill="url(#E)"/><linearGradient id="F" x1="501.24" x2="261.06" y1="295.5" y2="228.54" gradientUnits="userSpaceOnUse"><stop stop-color="#52abaf" offset="0"/><stop stop-color="#adcfff" offset=".766"/></linearGradient><path d="M302.66 319.52l169.45 99.56c3.1.35 5.3-8.43 5.26-8.7l-3.3-118.4c-1.74-6.97-15.7-13.96-15.7-13.96-105-66.06-197.52-85.07-206.65-183.8 3.45 86.3-24 163.05 50.94 225.3z" fill="url(#F)"/><linearGradient id="G" x1="102.624" x2="240.822" y1="131.109" y2="295.875" gradientUnits="userSpaceOnUse"><stop stop-color="#879efe" offset=".034"/><stop stop-color="#adcfff" offset="1"/></linearGradient><path d="M198.23 318.7l.15.04c30.75-22.82 44.62-52.96 53.02-90.45l1.5-196.53c-1.74-3.03-10.16-.2-10.16-.2L141.82 93.6c-5.17 5-4.23 20.6-4.23 20.6l-.02 90.8C141.2 291.65 135 305.3 135 305.3c-10.44 41.04-30.52 63.86-53.76 78.86.44-.1 116.5-65.23 117-65.47z" fill="url(#G)"/></svg>