<?xml version="1.0" encoding="utf-8"?>
<!-- Generator: Adobe Illustrator 24.1.0, SVG Export Plug-In . SVG Version: 6.00 Build 0)  -->
<svg version="1.1" id="Calque_1" xmlns="http://www.w3.org/2000/svg" xmlns:xlink="http://www.w3.org/1999/xlink" x="0px" y="0px"
	 viewBox="0 0 512 512" enable-background="new 0 0 512 512" xml:space="preserve">
<polygon fill="#FFFFFF" points="256.86,195.19 191,322 328.28,323.7 "/>
<linearGradient id="SVGID_1_" gradientUnits="userSpaceOnUse" x1="40.5914" y1="486.7469" x2="248.7649" y2="353.3013">
	<stop  offset="0.3637" style="stop-color:#7E9EFF"/>
	<stop  offset="0.8664" style="stop-color:#605EFF"/>
</linearGradient>
<path fill="url(#SVGID_1_)" d="M14.71,427.74c0,0,3.86,7.63,7.72,7.63s100.36,57.26,100.36,57.26s11.58,7.63,27.02,0
	S262,427.74,262,427.74S120.86,311.32,14.71,427.74z"/>
<linearGradient id="SVGID_2_" gradientUnits="userSpaceOnUse" x1="344.7549" y1="324.4885" x2="485.8649" y2="320.2067">
	<stop  offset="7.268117e-03" style="stop-color:#7469F1"/>
	<stop  offset="1" style="stop-color:#9D80D9"/>
</linearGradient>
<path fill="url(#SVGID_2_)" d="M374.51,215.46c158.7,91.48,130.62,30.49,131.27,204.84l-6.06,7.61l-48.01-26.68
	c0,0-76.04-59.53-76.62-117.32"/>
<linearGradient id="SVGID_3_" gradientUnits="userSpaceOnUse" x1="213.0879" y1="60.4204" x2="154.2253" y2="170.4782">
	<stop  offset="7.268117e-03" style="stop-color:#9A58F6"/>
	<stop  offset="1" style="stop-color:#7561FE"/>
</linearGradient>
<path fill="url(#SVGID_3_)" d="M258.37,3.39c-12.63,0.57-108.36,60.83-114.04,62.82c0,0-9.66,5.71-11.6,22.85l0.17,125.99
	C205.33,201.45,265.85,158.37,258.37,3.39z"/>
<linearGradient id="SVGID_4_" gradientUnits="userSpaceOnUse" x1="341.8664" y1="264.5482" x2="488.7173" y2="67.5642">
	<stop  offset="0.1871" style="stop-color:#C1B5FF"/>
	<stop  offset="1" style="stop-color:#AB61EC"/>
</linearGradient>
<path fill="url(#SVGID_4_)" d="M256.48,3.39c-3.88,294.69-25.54,270.95,243.67,424.53C355.64,363.43,383.46,251.92,382.13,90.96
	c-0.01,0-0.01-20.94-11.43-24.75c0,0-98.99-59.01-98.99-59.01S262.19,1.48,256.48,3.39z"/>
<linearGradient id="SVGID_5_" gradientUnits="userSpaceOnUse" x1="9" y1="250.5501" x2="256.9828" y2="250.5501">
	<stop  offset="0.3637" style="stop-color:#879EFE"/>
	<stop  offset="0.8664" style="stop-color:#C8B7FB"/>
</linearGradient>
<path fill="url(#SVGID_5_)" d="M255.26,73.19c0,0-2.58,53.94-46.37,93.92c0,0-9.52,13.33-93.28,57.11l-85.67,49.5
	c0,0-15.23,7.61-17.13,15.23S9,418.4,9,418.4s1.9,9.52,5.71,9.52S199.37,319.4,199.37,319.4c40.39-37.06,61.97-75.61,56.88-134.27
	L255.26,73.19z"/>
<linearGradient id="SVGID_6_" gradientUnits="userSpaceOnUse" x1="90.7945" y1="290.6183" x2="458.0141" y2="526.1347">
	<stop  offset="0.2631" style="stop-color:#C1B5FF"/>
	<stop  offset="1" style="stop-color:#7C82E0"/>
</linearGradient>
<path fill="url(#SVGID_6_)" d="M500.16,426.74L320.38,318.32c-30.78-10.51-87.75-21.75-127.05,2.87L64,399.86
	c0,0,55.8-44.76,144.74-0.22s141.93,83.25,141.93,83.25s24.6,17.43,35.95,13.55c11.35-3.87,107.86-61.96,107.86-61.96L500.16,426.74
	z"/>
</svg>
